<!DOCTYPE svg PUBLIC "-//W3C//DTD SVG 1.1//EN" "http://www.w3.org/Graphics/SVG/1.1/DTD/svg11.dtd">
<!-- Uploaded to: SVG Repo, www.svgrepo.com, Transformed by: SVG Repo Mixer Tools -->
<svg fill="#ff0000" version="1.1" id="Capa_1" xmlns="http://www.w3.org/2000/svg" xmlns:xlink="http://www.w3.org/1999/xlink" width="800px" height="800px" viewBox="0 0 143.417 143.418" xml:space="preserve" stroke="#ff0000" transform="matrix(1, 0, 0, 1, 0, 0)">
<g id="SVGRepo_bgCarrier" stroke-width="0"/>
<g id="SVGRepo_tracerCarrier" stroke-linecap="round" stroke-linejoin="round"/>
<g id="SVGRepo_iconCarrier"> <g> <g> <path d="M132.033,14.473c0,0-0.533-2.679-20.367-14.473C93.192,15.069,75.165,2.809,71.963,0.396l-0.249-0.193l-0.249,0.193 C68.261,2.809,50.229,15.069,31.753,0C11.921,11.794,11.385,14.473,11.385,14.473s18.225,19.832,6.967,55.746 c-11.258,35.916-3.752,43.955,0,47.174c3.755,3.22,12.865,10.187,33.505,13.396c14.221,2.219,18.38,8.246,19.596,11.785 l0.251,0.844l0.249-0.844c1.216-3.534,5.386-9.562,19.599-11.785c20.642-3.215,29.752-10.187,33.499-13.396 c3.758-3.219,11.264-11.258,0-47.174C113.808,34.31,132.033,14.473,132.033,14.473z M98.224,89.992l-0.427,0.98l0.167,0.238 c-0.192,1.346-0.446,4.225,0.173,7.617c-7.119,0.563-13.97,0.325-20.799-0.549l-0.076-0.01l0,0 c-4.024-0.513-8.044-1.193-12.111-2.214c5.378-14.939,4.827-30.09,4.801-30.755l-0.333-8.092l-3.146,7.462 c-0.038,0.089-4.009,9.356-15.376,7.414l-0.271-0.046l-0.269,0.035c-1.006,0.138-9.813,1.476-10.177,7.828 c-0.51,0.452-1.855,0.868-3.62,0.716c-1.803-0.152-3.354-0.833-4.045-1.767c-0.386-0.528-0.49-1.128-0.327-1.879 c0.624-2.869,2.361-4.721,4.763-7.285c2.547-2.719,5.721-6.099,8.643-12.131c0.655-1.95,3.009-7.487,6.015-9.666 c3.204-2.328,6.391-1.653,6.548-1.622l3.369,0.932l-1.186-3.293c-0.089-0.244-1.612-4.383-4.618-7.559 c3.499,0.487,5.88,1.335,6.241,1.757l0.432,1.147l1.221,0.028c0.942,0.02,2.341,0.051,4.936-7.168 c6.337,1.13,32.605,8.617,37.663,55.35C98.919,88.438,98.605,89.129,98.224,89.992z"/> </g> </g> </g>
</svg>